<?xml version="1.0" encoding="UTF-8"?>
<svg id="Capa_2" data-name="Capa 2" xmlns="http://www.w3.org/2000/svg" viewBox="0 0 124.24 112">
  <defs>
    <style>
      .cls-1 {
        fill: #921217;
      }

      .cls-2 {
        fill: #747263;
      }
    </style>
  </defs>
  <g id="Capa_1-2" data-name="Capa 1">
    <g>
      <g>
        <polygon class="cls-1" points="58.24 0 58.24 52.94 15.88 52.94 15.88 42.35 47.65 42.35 47.65 0 58.24 0"/>
        <path class="cls-1" d="M0,0V52.94H10.59v-15.88h26.47V0H0ZM29.12,29.12H7.94V7.94H29.12V29.12Z"/>
      </g>
      <g>
        <polygon class="cls-2" points="124.24 0 124.24 52.94 81.89 52.94 81.89 42.35 113.65 42.35 113.65 0 124.24 0"/>
        <path class="cls-2" d="M66.01,0V52.94h10.59v-15.88h26.47V0h-37.06Zm29.12,29.12h-21.18V7.94h21.18V29.12Z"/>
      </g>
      <g>
        <polygon class="cls-1" points="124.24 59.06 124.24 112 81.89 112 81.89 101.41 113.65 101.41 113.65 59.06 124.24 59.06"/>
        <path class="cls-1" d="M66.01,59.06v52.94h10.59v-15.88h26.47V59.06h-37.06Zm29.12,29.12h-21.18v-21.18h21.18v21.18Z"/>
      </g>
      <g>
        <polygon class="cls-2" points="58.24 59.06 58.24 112 15.88 112 15.88 101.41 47.65 101.41 47.65 59.06 58.24 59.06"/>
        <path class="cls-2" d="M0,59.06v52.94H10.59v-15.88h26.47V59.06H0Zm29.12,29.12H7.94v-21.18H29.12v21.18Z"/>
      </g>
    </g>
  </g>
</svg>